<svg width="71" height="71" viewBox="0 0 71 71" fill="none" xmlns="http://www.w3.org/2000/svg">
<rect width="71" height="71" rx="14" fill="#FFE8DF"/>
<path d="M47.1253 45.8335H28.0086C26.5618 45.8335 25.8378 45.8335 25.2852 45.5519C24.7992 45.3042 24.4042 44.9091 24.1566 44.423C23.875 43.8704 23.875 43.147 23.875 41.7002V26.4585M47.125 29.0418L39.5743 35.6487C38.67 36.4399 38.2178 36.8356 37.7226 36.9998C37.1385 37.1936 36.5043 37.1724 35.9344 36.9403C35.4513 36.7434 35.0267 36.3187 34.177 35.469C33.3458 34.6378 32.9302 34.2222 32.4563 34.0256C31.8972 33.7937 31.2746 33.7653 30.6968 33.9457C30.207 34.0986 29.7553 34.4749 28.8523 35.2274L23.875 39.3751" stroke="#CE5D30" stroke-width="2" stroke-linecap="round" stroke-linejoin="round"/>
</svg>
