<svg width="71" height="71" viewBox="0 0 71 71" fill="none" xmlns="http://www.w3.org/2000/svg">
<rect width="71" height="71" rx="14" fill="#FFF8DF"/>
<path d="M26.1328 29.8754L25.7065 34.5639L25.7053 34.5779C25.6417 35.2773 25.6097 35.6291 25.6678 35.9632C25.7196 36.2613 25.823 36.548 25.974 36.8102C26.1434 37.1044 26.3937 37.3547 26.8911 37.8521L26.8998 37.8608L33.5683 44.5293L33.5744 44.5354C34.5934 45.5544 35.1033 46.0642 35.692 46.2555C36.2108 46.4241 36.7698 46.4241 37.2887 46.2555C37.8785 46.0639 38.3911 45.5523 39.4141 44.5292L44.5288 39.4145C45.5519 38.3915 46.0624 37.88 46.254 37.2902C46.4226 36.7713 46.4226 36.2125 46.254 35.6936C46.0624 35.1038 45.5516 34.5923 44.5286 33.5692L37.8601 26.9007C37.3569 26.3975 37.1052 26.1459 36.8093 25.9755C36.5472 25.8245 36.2603 25.7207 35.9622 25.6688C35.6258 25.6103 35.2714 25.6425 34.5627 25.7069L29.8742 26.1332L29.873 26.1333C28.6535 26.2441 28.0432 26.2996 27.5658 26.5651C27.1448 26.7992 26.7977 27.1464 26.5636 27.5673C26.2994 28.0424 26.2443 28.6488 26.1345 29.8567L26.1328 29.8754Z" stroke="#E6C54A" stroke-width="2" stroke-linecap="round" stroke-linejoin="round"/>
</svg>
